<svg width="32" height="32" viewBox="0 0 32 32" fill="none" xmlns="http://www.w3.org/2000/svg">
<g clip-path="url(#clip0_500_1374)">
<rect width="32" height="32" fill="white"/>
<rect width="32" height="32" fill="black"/>
<g filter="url(#filter0_d_500_1374)">
<path d="M29 16C29 23.1797 23.1797 29 16 29C8.8203 29 3 23.1797 3 16C3 8.8203 8.8203 3 16 3C23.1797 3 29 8.8203 29 16Z" fill="#080E6E"/>
</g>
<g filter="url(#filter1_d_500_1374)">
<path d="M24.5 13C27.5 13.5 27 17 25.5 17.5L26.5 19H25L24 17.5H22.5V19H21.5V13H24.5ZM22.5 14V16.5H24C26.5 16.5 25.5 14 24.5 14H22.5Z" fill="#D6F3F8"/>
<rect x="8" y="13" width="1.4" height="6" fill="#D6F3F8"/>
<rect x="12" y="13" width="1.2" height="6" fill="#D6F3F8"/>
<rect x="28" y="13" width="1.4" height="6" fill="#D6F3F8"/>
<rect x="12" y="16.1001" width="1.2" height="2.6" transform="rotate(90 12 16.1001)" fill="#D6F3F8"/>
<path d="M17.25 13C19.0449 13 20.5 14.3431 20.5 16C20.5 17.6569 19.0449 19 17.25 19C15.4551 19 14 17.6569 14 16C14 14.3431 15.4551 13 17.25 13ZM17.25 14C16.0074 14 15 14.8954 15 16C15 17.1046 16.0074 18 17.25 18C18.4926 18 19.5 17.1046 19.5 16C19.5 14.8954 18.4926 14 17.25 14Z" fill="#D6F3F8"/>
</g>
<path d="M16 3C21.7841 3 26.6859 6.77747 28.373 12H27.7412C26.0771 7.1142 21.4488 3.59961 16 3.59961C9.15167 3.59961 3.59961 9.15167 3.59961 16C3.59961 22.8483 9.15167 28.4004 16 28.4004C21.4488 28.4004 26.0771 24.8858 27.7412 20H28.373C26.6859 25.2225 21.7841 29 16 29C8.8203 29 3 23.1797 3 16C3 8.8203 8.8203 3 16 3Z" fill="#D6F3F8"/>
</g>
<defs>
<filter id="filter0_d_500_1374" x="-2" y="-2" width="36" height="36" filterUnits="userSpaceOnUse" color-interpolation-filters="sRGB">
<feFlood flood-opacity="0" result="BackgroundImageFix"/>
<feColorMatrix in="SourceAlpha" type="matrix" values="0 0 0 0 0 0 0 0 0 0 0 0 0 0 0 0 0 0 127 0" result="hardAlpha"/>
<feOffset/>
<feGaussianBlur stdDeviation="2.5"/>
<feComposite in2="hardAlpha" operator="out"/>
<feColorMatrix type="matrix" values="0 0 0 0 0.0140941 0 0 0 0 0.0455991 0 0 0 0 0.549679 0 0 0 1 0"/>
<feBlend mode="normal" in2="BackgroundImageFix" result="effect1_dropShadow_500_1374"/>
<feBlend mode="normal" in="SourceGraphic" in2="effect1_dropShadow_500_1374" result="shape"/>
</filter>
<filter id="filter1_d_500_1374" x="4" y="9" width="29.3999" height="14" filterUnits="userSpaceOnUse" color-interpolation-filters="sRGB">
<feFlood flood-opacity="0" result="BackgroundImageFix"/>
<feColorMatrix in="SourceAlpha" type="matrix" values="0 0 0 0 0 0 0 0 0 0 0 0 0 0 0 0 0 0 127 0" result="hardAlpha"/>
<feOffset/>
<feGaussianBlur stdDeviation="2"/>
<feComposite in2="hardAlpha" operator="out"/>
<feColorMatrix type="matrix" values="0 0 0 0 0 0 0 0 0 0.167014 0 0 0 0 0.770833 0 0 0 1 0"/>
<feBlend mode="normal" in2="BackgroundImageFix" result="effect1_dropShadow_500_1374"/>
<feBlend mode="normal" in="SourceGraphic" in2="effect1_dropShadow_500_1374" result="shape"/>
</filter>
<clipPath id="clip0_500_1374">
<rect width="32" height="32" fill="white"/>
</clipPath>
</defs>
</svg>
